<?xml version="1.0" encoding="utf-8"?>
<!-- Generator: Adobe Illustrator 23.0.3, SVG Export Plug-In . SVG Version: 6.00 Build 0)  -->
<svg version="1.1" id="Layer_1" xmlns="http://www.w3.org/2000/svg" xmlns:xlink="http://www.w3.org/1999/xlink" x="0px" y="0px"
	 viewBox="0 0 512 512" style="enable-background:new 0 0 512 512;" xml:space="preserve">
<style type="text/css">
	.st0{fill:#FFFFFF;}
</style>
<g>
	<ellipse class="st0" cx="290.6" cy="273.9" rx="23" ry="26.2"/>
	<ellipse class="st0" cx="205.4" cy="273.9" rx="23" ry="26.2"/>
	<path class="st0" d="M248,30.4c-127.3,0-230.5,103.2-230.5,230.5S120.7,491.3,248,491.3s230.5-103.2,230.5-230.5
		S375.3,30.4,248,30.4z M307.1,365.5l-10.7-14.3c18.2-6.3,38.8-17.6,56.5-38.1c-21.2,16.1-53.2,32.8-104.8,32.8
		s-83.6-16.7-104.8-32.8c17.7,20.4,38.4,31.8,56.5,38.1l-10.7,14.3c0,0-51.3-0.3-85.1-39.3c5.8-95.4,39.3-144,39.3-144
		s28.3-22.7,65.5-26.2l3.2,6.4c-29.3,6.6-46.7,19.1-62.1,32.9c26.5-13.5,52.7-26.2,98.2-26.2s71.8,12.7,98.2,26.2
		c-15.4-13.8-30.1-25-62.1-32.9l3.2-6.4c35.5,2.7,65.5,26.2,65.5,26.2s33.5,48.6,39.4,144C358.4,365.3,307.1,365.5,307.1,365.5z"/>
</g>
</svg>
