<?xml version="1.0" encoding="utf-8"?>
<!-- Generator: Adobe Illustrator 23.0.3, SVG Export Plug-In . SVG Version: 6.00 Build 0)  -->
<svg version="1.1" id="Layer_1" xmlns="http://www.w3.org/2000/svg" xmlns:xlink="http://www.w3.org/1999/xlink" x="0px" y="0px"
	 viewBox="0 0 56.7 56.7" style="enable-background:new 0 0 56.7 56.7;" xml:space="preserve">
<style type="text/css">
	.st0{fill-rule:evenodd;clip-rule:evenodd;fill:#FFFFFF;}
	.st1{fill:#FFFFFF;}
</style>
<g>
	<path class="st0" d="M28.7,4.9C15,4.9,3.9,16,3.9,29.7c0,11,7.1,20.2,17,23.5c1.2,0.2,1.7-0.5,1.7-1.2c0-0.6,0-2.5,0-4.6
		c-6.9,1.5-8.4-2.9-8.4-2.9c-1.1-2.9-2.8-3.6-2.8-3.6c-2.2-1.5,0.2-1.5,0.2-1.5c2.5,0.2,3.8,2.6,3.8,2.6c2.2,3.8,5.8,2.7,7.2,2.1
		c0.2-1.6,0.9-2.7,1.6-3.3c-5.5-0.6-11.3-2.8-11.3-12.3c0-2.7,1-4.9,2.6-6.7c-0.3-0.6-1.1-3.1,0.2-6.6c0,0,2.1-0.7,6.8,2.5
		c2-0.5,4.1-0.8,6.2-0.8c2.1,0,4.2,0.3,6.2,0.8c4.7-3.2,6.8-2.5,6.8-2.5c1.3,3.4,0.5,5.9,0.2,6.6c1.6,1.7,2.6,3.9,2.6,6.7
		c0,9.5-5.8,11.6-11.3,12.2c0.9,0.8,1.7,2.3,1.7,4.6c0,3.3,0,6,0,6.8c0,0.7,0.4,1.4,1.7,1.2c9.8-3.3,16.9-12.6,16.9-23.5
		C53.5,16,42.4,4.9,28.7,4.9z"/>
	<path class="st1" d="M13.3,40.5c-0.1,0.1-0.2,0.2-0.4,0.1c-0.2-0.1-0.3-0.2-0.2-0.4c0.1-0.1,0.2-0.2,0.4-0.1
		C13.3,40.2,13.4,40.4,13.3,40.5L13.3,40.5z"/>
	<path class="st1" d="M14.3,41.7c-0.1,0.1-0.3,0.1-0.5-0.1c-0.2-0.2-0.2-0.4-0.1-0.5c0.1-0.1,0.3-0.1,0.5,0.1
		C14.4,41.3,14.5,41.5,14.3,41.7L14.3,41.7z"/>
	<path class="st1" d="M15.3,43.1c-0.2,0.1-0.4,0-0.6-0.2c-0.2-0.2-0.2-0.5,0-0.6c0.2-0.1,0.4,0,0.6,0.2C15.5,42.7,15.5,43,15.3,43.1
		L15.3,43.1z"/>
	<path class="st1" d="M16.7,44.5c-0.1,0.1-0.4,0.1-0.6-0.1c-0.2-0.2-0.3-0.5-0.1-0.6c0.1-0.2,0.4-0.1,0.6,0.1
		C16.7,44,16.8,44.3,16.7,44.5L16.7,44.5z"/>
	<path class="st1" d="M18.5,45.3c-0.1,0.2-0.3,0.3-0.6,0.2c-0.3-0.1-0.5-0.3-0.4-0.5c0.1-0.2,0.3-0.3,0.6-0.2
		C18.4,44.8,18.6,45.1,18.5,45.3L18.5,45.3z"/>
	<path class="st1" d="M20.5,45.4c0,0.2-0.2,0.4-0.5,0.4c-0.3,0-0.5-0.2-0.5-0.4c0-0.2,0.2-0.4,0.5-0.4C20.3,45,20.5,45.2,20.5,45.4
		L20.5,45.4z"/>
	<path class="st1" d="M22.4,45.1c0,0.2-0.2,0.4-0.5,0.5c-0.3,0.1-0.6-0.1-0.6-0.3c0-0.2,0.2-0.4,0.5-0.5
		C22.1,44.8,22.4,44.9,22.4,45.1L22.4,45.1z"/>
</g>
</svg>
