<?xml version="1.0" encoding="utf-8"?>
<!-- Generator: Adobe Illustrator 23.0.3, SVG Export Plug-In . SVG Version: 6.00 Build 0)  -->
<svg version="1.1" id="Layer_1" xmlns="http://www.w3.org/2000/svg" xmlns:xlink="http://www.w3.org/1999/xlink" x="0px" y="0px"
	 viewBox="0 0 56.7 56.7" style="enable-background:new 0 0 56.7 56.7;" xml:space="preserve">
<style type="text/css">
	.st0{fill:#FFFFFF;}
</style>
<g>
	<path class="st0" d="M29.4,29.9c0.2-0.1,0.4-0.1,0.6-0.2c-0.4-0.9-0.8-1.7-1.2-2.6c-7.9,2.4-15.4,2.2-15.7,2.2c0,0.2,0,0.3,0,0.5
		c0,3.9,1.5,7.5,3.9,10.2c0,0,0,0,0,0S21.2,32.6,29.4,29.9z"/>
	<path class="st0" d="M27.5,24.8c-2.6-4.7-5.5-8.5-5.7-8.8c-4.3,2-7.4,5.9-8.4,10.7C13.8,26.6,20.2,26.7,27.5,24.8z"/>
	<path class="st0" d="M38.4,18.3c-2.7-2.4-6.2-3.8-10.1-3.8c-1.2,0-2.4,0.1-3.6,0.4c0.2,0.3,3.1,4.1,5.7,8.9
		C36.2,21.7,38.4,18.4,38.4,18.3z"/>
	<path class="st0" d="M24.7,15C24.7,15,24.7,15,24.7,15C24.7,15,24.7,15,24.7,15L24.7,15z"/>
	<path class="st0" d="M19,41.8L19,41.8c-0.1-0.1-0.2-0.2-0.3-0.3C18.8,41.7,19,41.8,19,41.8z"/>
	<path class="st0" d="M31.6,26.1c0.4,0.7,0.7,1.5,1,2.2c0.1,0.3,0.2,0.5,0.3,0.8c5.2-0.7,10.4,0.5,10.6,0.5c0-3.6-1.3-6.9-3.5-9.5
		C40.1,20.1,37.7,23.7,31.6,26.1z"/>
	<path class="st0" d="M30.9,32.3c-9,3.1-11.9,9.5-12,9.5c2.6,2,5.8,3.2,9.4,3.2c2.1,0,4.1-0.4,6-1.2C34.1,42.5,33.2,37.8,30.9,32.3
		C31,32.3,31,32.3,30.9,32.3z"/>
	<path class="st0" d="M28.3,5.2c-13.6,0-24.6,11-24.6,24.6c0,13.6,11,24.6,24.6,24.6c13.6,0,24.6-11,24.6-24.6
		C53,16.2,41.9,5.2,28.3,5.2z M44.8,36.7c-0.4,1.1-1,2.1-1.6,3c-0.6,0.9-1.4,1.8-2.2,2.6c-0.8,0.8-1.7,1.5-2.6,2.2
		c-1,0.6-2,1.2-3,1.6c-1.1,0.5-2.2,0.8-3.4,1c-1.2,0.2-2.4,0.4-3.6,0.4s-2.4-0.1-3.6-0.4c-1.1-0.2-2.3-0.6-3.4-1
		c-1.1-0.4-2.1-1-3-1.6c-0.9-0.6-1.8-1.4-2.6-2.2c-0.8-0.8-1.5-1.7-2.2-2.6c-0.6-1-1.2-2-1.6-3c-0.5-1.1-0.8-2.2-1-3.4
		c-0.2-1.2-0.4-2.4-0.4-3.6s0.1-2.4,0.4-3.6c0.2-1.1,0.6-2.3,1-3.4c0.4-1.1,1-2.1,1.6-3c0.6-0.9,1.4-1.8,2.2-2.6
		c0.8-0.8,1.7-1.5,2.6-2.2c1-0.6,2-1.2,3-1.6c1.1-0.5,2.2-0.8,3.4-1c1.2-0.2,2.4-0.4,3.6-0.4s2.4,0.1,3.6,0.4c1.1,0.2,2.3,0.6,3.4,1
		c1.1,0.4,2.1,1,3,1.6c0.9,0.6,1.8,1.4,2.6,2.2c0.8,0.8,1.5,1.7,2.2,2.6c0.6,1,1.2,2,1.6,3c0.5,1.1,0.8,2.2,1,3.4
		c0.2,1.2,0.4,2.4,0.4,3.6s-0.1,2.4-0.4,3.6C45.6,34.5,45.3,35.7,44.8,36.7z"/>
	<path class="st0" d="M33.9,31.5c2,5.5,2.8,10,3,10.9c3.4-2.3,5.9-6,6.5-10.2C43.1,32.1,38.8,30.7,33.9,31.5z"/>
</g>
</svg>
