<?xml version="1.0" encoding="utf-8"?>
<!-- Generator: Adobe Illustrator 23.0.3, SVG Export Plug-In . SVG Version: 6.00 Build 0)  -->
<svg version="1.1" id="Layer_1" xmlns="http://www.w3.org/2000/svg" xmlns:xlink="http://www.w3.org/1999/xlink" x="0px" y="0px"
	 viewBox="0 0 500 500" style="enable-background:new 0 0 500 500;" xml:space="preserve">
<style type="text/css">
	.st0{fill:#FFFFFF;}
	.st1{fill:#333333;}
	.st2{fill:#E6E6E6;}
	.st3{opacity:0.11;fill:#FFFFFF;}
</style>
<path id="Skull" class="st0" d="M147.5,66.9c11.9-2.2,23.9-3.1,35.9-1.6c14.2,1.7,27.5,5.9,40,12.8c4.7,2.6,9.3,5.3,13.6,8.5
	c0.8,0.6,1.6,0.9,2.5,1c5,0.7,10,1.4,15,2.2c2,0.3,2.9,0.1,3.2-2.2c0.4-3.6,1.4-7,3.6-10c2.6-3.6,8.6-5.2,12.4-0.6
	c4.8,5.8,10.5,11.4,11.9,18.8c1.8,10,10.2,14.5,15.5,21.6c0.6,0.8,1.6,0.8,2.6,0.8c10.2,0.4,18.6,4.8,25.5,12.1
	c2.1,2.2,4.3,3.5,7.4,3.8c5.2,0.5,10.4,1.6,15.6,2c7.4,0.6,13.5,3.8,19.3,8.1c5.8,4.3,11.7,8.3,17.6,12.5c0.8,0.6,1.7,1.3,2.7,1.4
	c10,1.2,17.8,6.8,24.8,13.3c5.7,5.2,11.7,10.1,16.9,15.8c7.8,8.5,14.4,17.9,19.6,28.3c9.6,19,12.9,39.2,11.2,60.2
	c-0.5,5.8-1.6,11.6-2.8,17.4c-0.4,1.7-1.1,2.6-3,2.9c-9.5,1.5-18.8,3.5-28.3,4.5c-6.2,0.7-10.7,3.2-14.2,8.2
	c-2.1,2.9-4.9,5.3-7.2,8.1c-1.7,2-2.7,1.4-3.7-0.6c-1.2-2.2-2.7-4.2-3.8-6.4c-1.2-2.5-2.7-2.5-4.9-1.4c-6.4,3.1-12.9,6-19.3,9
	c-3.1,1.4-3.2,1.4-3.8-2c-0.4-2.1-0.9-4.2-1.1-6.4c-0.2-2.6-1.2-3-3.5-2.2c-6.2,2.3-12.4,4.6-18.6,6.8c-1.3,0.5-2.9,1.7-4,0.5
	c-0.9-1.1,0.5-2.5,1-3.6c1.7-3.9,3.4-7.8,5.5-12.5c-9.3,4.2-17.7,8.1-26.8,12.2c2.2-7.6,5.8-14.1,7.6-21.2c0.1-0.2,0.3-0.6,0.2-0.7
	c-0.2-0.3-0.5-0.1-0.6,0.1c-6.2,3.3-11.8,7.7-17.7,11.5c-1,0.6-2.1,1.3-3.1,2c-3.2-1.2,0.3-2.5,0-3.8c1.3-1.9,2.6-3.7,3.8-5.6
	c1-1.8,2.9-3.1,3.1-5.4c2.6-1.8,3.9-4.6,5.3-7.3c-4.7,1.5-9.6,1.6-14,3.4c-1.9,0.4-3.8,0.9-5.7,1.3c-0.7,0.1-1.5,0.6-2-0.2
	c-0.4-0.7,0.1-1.4,0.5-2c1-1.5,2.2-3,2.4-4.9c1.8-1.3,2.6-3.4,3.5-5.3c1-2.1,3.8-4.7,2.5-6.2c-1-1.2-4.4,0.9-6.7,1.5
	c-1.2,0.3-2.4,0.6-3.6,0.8c-1.1,0.2-2.3,0.7-2.7-1c0.1-3.1,0.2-6.2,0.4-9.3c0.1-1.5-0.5-2.4-2-2.5c-9.3-1.1-18.7-1.9-27.7,1.8
	c-4.9,2-8.1,5.5-9,10.9c-2.4,14.9,0.5,28.4,9.6,40.6c1.2,1.6,2.6,2.4,4.6,2.3c5.3-0.1,10.7,0,16.6,0c-3.2,3-6.7,4.5-9.4,7.5
	c4.3,1.2,8.5,0,12.9,0.8c-3.3,4.1-6.3,7.9-9.7,12.1c4.1,0,7.1-2,10.7-1.6c-1.2,4.7-3.4,8.8-5,13.1c-0.3,0.9-1.2,2-0.4,2.8
	c0.7,0.7,1.7,0.1,2.6,0c3.4-0.6,6.9-1.2,10.3-1.8c1.9-0.3,2.4,0.4,1.8,2.1c-1.4,4.1-2.8,8.1-4.2,12.2c-0.3,0.7-0.9,1.6-0.1,2.2
	c0.6,0.5,1.3-0.2,2-0.6c2.4-1.3,4.9-2.7,7.4-3.9c0.7-0.4,1.5-1.5,2.4-0.7c0.6,0.6,0.3,1.8,0.1,2.7c-0.6,3.9-1.2,7.7-1.7,11.6
	c-0.1,0.6,0,1.2,0,2.5c3.5-2.5,6.6-4.7,9.6-7c0.9-0.7,1.8-1.9,2.9-1.4c1.3,0.5,0.6,2,0.6,3c-0.1,5.8-0.3,11.5-0.4,17.3
	c0,0.9-0.2,2.1,0.7,2.5c1.1,0.5,1.9-0.5,2.6-1.2c2.1-2.2,4.2-4.4,6.6-6.9c1.2,5.3,0.5,10.3,1.4,15.3c1.8-0.5,3-1.6,4.2-2.7
	c1.7-1.5,2.2-0.7,2.4,1.1c0.3,2.8,0.7,5.5,0.9,8.3c0.1,2.1,1.1,2.8,3.2,2.7c5.1-0.1,10.3,0,15.9,0c-1.6,2-2.8,3.8-4.2,5.3
	c-1.5,1.7-1.7,3.1,0.4,4.4c2.3,1.5,4.1,3.4,5.6,5.7c1.6,2.4,2,4.8,0.5,7.5c-1.1,1.9-1.5,4.3-2.5,6.3c-3.3,6.2-8.6,9.5-15.5,10.5
	c-10.3,1.5-19.9-1-29-5.4c-14.1-6.8-27.8-14.2-41.8-21.2c-22.6-11.2-45-23.1-68.2-33c-10-4.3-20.6-7.2-30.7-11.1
	c-18.3-7-36.6-13.8-53.3-24.2c-1.5-0.9-2.7-2.2-4-3.3c-11.4-10.6-24.8-17.4-40.1-20.1c-7.5-1.3-15.2-1.3-22.6,1.1
	c-2.1,0.7-2.5,0.3-2.5-1.9c0.5-25.3,0.9-50.7,1.4-76c0.4-23.5,0.9-47,1.3-70.4c0.5-26.5,8.9-50.2,25.7-70.8
	c6.5-8,14.2-14.8,22.5-20.9c0.8,0,1.5-0.4,1.8-1.2c0,0,0,0,0,0c0.8-0.1,1.4-0.4,1.8-1.2c0,0,0.1-0.1,0.1-0.1c0.8,0,1.3-0.5,1.7-1.1
	c0,0,0.1-0.1,0.1-0.1c0.8-0.1,1.5-0.3,1.7-1.1c0,0,0.2-0.1,0.2-0.1c1.6-0.1,2.7-1.5,4-2.1C126.3,73.5,136.6,69.4,147.5,66.9z"/>
<path class="st1" d="M107.7,155.5h55.6c41.4,0,75,33.6,75,75c0,41.4-33.6,75-75,75h-55.6V155.5z M146.9,266.7h16.6
	c19.6,0,35.6-16,35.6-35.6c0-19.4-16-35.4-35.6-35.4h-16.6V266.7z"/>
<path class="st1" d="M359.1,205.1c-6.2-6.2-15-9.8-25.2-9.8c-20.4,0-35.2,14.8-35.2,35.2c0,20.4,14.8,35.2,35.2,35.2
	c10.2,0,19-3.6,25.2-10l28,27.6c-13.6,13.6-32.4,22.2-53.2,22.2c-41.4,0-75-33.6-75-75c0-41.4,33.6-75,75-75
	c20.6,0,39.2,8.2,52.8,21.8L359.1,205.1z"/>
<path class="st2" d="M118.5,136.6h55.6c41.4,0,75,33.6,75,75c0,41.4-33.6,75-75,75h-55.6V136.6z M157.7,247.8h16.6
	c19.6,0,35.6-16,35.6-35.6c0-19.4-16-35.4-35.6-35.4h-16.6V247.8z"/>
<path class="st2" d="M369.9,186.2c-6.2-6.2-15-9.8-25.2-9.8c-20.4,0-35.2,14.8-35.2,35.2c0,20.4,14.8,35.2,35.2,35.2
	c10.2,0,19-3.6,25.2-10l28,27.6c-13.6,13.6-32.4,22.2-53.2,22.2c-41.4,0-75-33.6-75-75c0-41.4,33.6-75,75-75
	c20.6,0,39.2,8.2,52.8,21.8L369.9,186.2z"/>
<path id="Skull_1_" class="st3" d="M145.2,75.6c11.9-2.2,23.9-3.1,35.9-1.6c14.2,1.7,27.5,5.9,40,12.8c4.7,2.6,9.3,5.3,13.6,8.5
	c0.8,0.6,1.6,0.9,2.5,1c5,0.7,10,1.4,15,2.2c2,0.3,2.9,0.1,3.2-2.2c0.4-3.6,1.4-7,3.6-10c2.6-3.6,8.6-5.2,12.4-0.6
	c4.8,5.8,10.5,11.4,11.9,18.8c1.8,10,10.2,14.5,15.5,21.6c0.6,0.8,1.6,0.8,2.6,0.8c10.2,0.4,18.6,4.8,25.5,12.1
	c2.1,2.2,4.3,3.5,7.4,3.8c5.2,0.5,10.4,1.6,15.6,2c7.4,0.6,13.5,3.8,19.3,8.1c5.8,4.3,11.7,8.3,17.6,12.5c0.8,0.6,1.7,1.3,2.7,1.4
	c10,1.2,17.8,6.8,24.8,13.3c5.7,5.2,11.7,10.1,16.9,15.8c7.8,8.5,14.4,17.9,19.6,28.3c9.6,19,12.9,39.2,11.2,60.2
	c-0.5,5.8-1.6,11.6-2.8,17.4c-0.4,1.7-1.1,2.6-3,2.9c-9.5,1.5-18.8,3.5-28.3,4.5c-6.2,0.7-10.7,3.2-14.2,8.2
	c-2.1,2.9-4.9,5.3-7.2,8.1c-1.7,2-2.7,1.4-3.7-0.6c-1.2-2.2-2.7-4.2-3.8-6.4c-1.2-2.5-2.7-2.5-4.9-1.4c-6.4,3.1-12.9,6-19.3,9
	c-3.1,1.4-3.2,1.4-3.8-2c-0.4-2.1-0.9-4.2-1.1-6.4c-0.1-2.6-1.2-3-3.5-2.2c-6.2,2.3-12.4,4.6-18.6,6.8c-1.3,0.5-2.9,1.7-4,0.5
	c-0.9-1.1,0.5-2.5,1-3.6c1.7-3.9,3.4-7.8,5.5-12.5c-9.3,4.2-17.7,8.1-26.8,12.2c2.2-7.6,5.8-14.1,7.6-21.2c0.1-0.2,0.3-0.6,0.2-0.7
	c-0.2-0.3-0.5-0.1-0.6,0.1c-6.2,3.3-11.8,7.7-17.7,11.5c-1,0.6-2.1,1.3-3.1,2c-3.2-1.2,0.3-2.5,0-3.8c1.3-1.9,2.6-3.7,3.8-5.6
	c1-1.8,2.9-3.1,3.1-5.4c2.6-1.8,3.9-4.6,5.3-7.3c-4.7,1.5-9.6,1.6-14,3.4c-1.9,0.4-3.8,0.9-5.7,1.3c-0.7,0.1-1.5,0.6-2-0.2
	c-0.4-0.7,0.1-1.4,0.5-2c1-1.5,2.2-3,2.4-4.9c1.8-1.3,2.6-3.4,3.5-5.3c1-2.1,3.8-4.7,2.5-6.2c-1-1.2-4.4,0.9-6.7,1.5
	c-1.2,0.3-2.4,0.6-3.6,0.8c-1.1,0.2-2.3,0.7-2.7-1c0.1-3.1,0.2-6.2,0.4-9.3c0.1-1.5-0.5-2.4-2-2.5c-9.3-1.1-18.7-1.9-27.7,1.8
	c-4.9,2-8.1,5.5-9,10.9c-2.4,14.9,0.5,28.4,9.6,40.6c1.2,1.6,2.6,2.4,4.6,2.3c5.3-0.1,10.7,0,16.6,0c-3.2,3-6.7,4.5-9.4,7.5
	c4.3,1.2,8.5,0,12.9,0.8c-3.3,4.1-6.3,7.9-9.7,12.1c4.1,0,7.1-2,10.7-1.6c-1.2,4.7-3.4,8.8-5,13.1c-0.3,0.9-1.2,2-0.4,2.8
	c0.7,0.7,1.7,0.1,2.6,0c3.4-0.6,6.9-1.2,10.3-1.8c1.9-0.3,2.4,0.4,1.8,2.1c-1.4,4.1-2.8,8.1-4.2,12.2c-0.3,0.7-0.9,1.6-0.1,2.2
	c0.6,0.5,1.3-0.2,2-0.6c2.4-1.3,4.9-2.7,7.4-3.9c0.7-0.4,1.5-1.5,2.4-0.7c0.6,0.6,0.3,1.8,0.1,2.7c-0.6,3.9-1.2,7.7-1.7,11.6
	c-0.1,0.6,0,1.2,0,2.5c3.5-2.5,6.6-4.7,9.6-7c0.9-0.7,1.8-1.9,2.9-1.4c1.3,0.5,0.6,2,0.6,3c-0.1,5.8-0.3,11.5-0.4,17.3
	c0,0.9-0.2,2.1,0.7,2.5c1.1,0.5,1.9-0.5,2.6-1.2c2.1-2.2,4.2-4.4,6.6-6.9c1.2,5.3,0.5,10.3,1.4,15.3c1.8-0.5,3-1.6,4.2-2.7
	c1.7-1.5,2.2-0.7,2.4,1.1c0.3,2.8,0.7,5.5,0.9,8.3c0.1,2.1,1.1,2.8,3.2,2.7c5.1-0.1,10.3,0,15.9,0c-1.6,2-2.8,3.8-4.2,5.3
	c-1.5,1.7-1.7,3.1,0.4,4.4c2.3,1.5,4.1,3.4,5.6,5.7c1.6,2.4,2,4.8,0.5,7.5c-1.1,1.9-1.5,4.3-2.5,6.3c-3.3,6.2-8.6,9.5-15.5,10.5
	c-10.3,1.5-19.9-1-29-5.4c-14.1-6.8-27.8-14.2-41.8-21.2c-22.6-11.2-45-23.1-68.2-33c-10-4.3-20.6-7.2-30.7-11.1
	c-18.3-7-36.6-13.8-53.3-24.2c-1.5-0.9-2.7-2.2-4-3.3c-11.4-10.6-24.8-17.4-40.1-20.1c-7.5-1.3-15.2-1.3-22.6,1.1
	c-2.1,0.7-2.5,0.3-2.5-1.9c0.5-25.3,0.9-50.7,1.4-76c0.4-23.5,0.9-47,1.3-70.4c0.5-26.5,8.9-50.2,25.7-70.8
	c6.5-8,14.2-14.8,22.5-20.9c0.8,0,1.5-0.4,1.8-1.2c0,0,0,0,0,0c0.8-0.1,1.4-0.4,1.8-1.2c0,0,0.1-0.1,0.1-0.1c0.8,0,1.3-0.5,1.7-1.1
	c0,0,0.1-0.1,0.1-0.1c0.8-0.1,1.5-0.3,1.7-1.1c0,0,0.2-0.1,0.2-0.1c1.6-0.1,2.7-1.5,4-2.1C124,82.1,134.3,78,145.2,75.6z"/>
</svg>
