<svg xmlns="http://www.w3.org/2000/svg" viewBox="0 0 1048.89 869.25"><defs><style>.a{fill:#fff;}.b{fill:gray;}.c{fill:#666;}.d{fill:#ccc;}</style></defs><path class="a" d="M684.85,564.83H789.28l304.28-377.09c18.63-23.14,2.16-57.54-27.55-57.54h0A35.34,35.34,0,0,0,1041.6,140L660.43,503.89C637.35,525.91,652.94,564.83,684.85,564.83Z" transform="translate(-52.56 -130.2)"/><path class="b" d="M117,999.45h0a64.39,64.39,0,0,1-64.39-64.39V130.2L167.11,272.52h0l14.23,17.68V935.06A64.39,64.39,0,0,1,117,999.45Z" transform="translate(-52.56 -130.2)"/><path class="c" d="M148.89,240.73c-21.49,2.69-74.53,28.31-96.33,99.8V130.2Z" transform="translate(-52.56 -130.2)"/><path class="d" d="M141,951.47h0a56.12,56.12,0,0,1-.19-72L402.39,564.83h62.35c49.37,0,74.69,59.14,40.62,94.87L224.6,954.1A56.13,56.13,0,0,1,141,951.47Z" transform="translate(-52.56 -130.2)"/><polygon class="a" points="543.28 434.63 349.84 434.63 0 0 88.03 0 543.28 434.63"/><path class="d" d="M1047.16,955.64l6.12-7.28a51.27,51.27,0,0,0,.18-65.76L789.28,564.83H595.84l375,393.2A51.26,51.26,0,0,0,1047.16,955.64Z" transform="translate(-52.56 -130.2)"/><path class="d" d="M764,404.33,595.84,564.83H789.28C707.69,458,764,404.33,764,404.33Z" transform="translate(-52.56 -130.2)"/><path class="a" d="M402,768.09c89.09-93.41.4-203.26.4-203.26H595.84Z" transform="translate(-52.56 -130.2)"/></svg>